<mxfile host="app.diagrams.net" modified="2021-04-26T04:03:35.865Z" agent="5.0 (Windows NT 10.0; Win64; x64) AppleWebKit/537.36 (KHTML, like Gecko) Chrome/90.0.4430.85 Safari/537.36" etag="SEB4QvZkvVvOfaoolDcD" version="14.6.6" type="github">
  <diagram id="FmUR7evRF2GwU5lHhEs5" name="Page-1">
    <mxGraphModel dx="1504" dy="645" grid="1" gridSize="10" guides="1" tooltips="1" connect="1" arrows="1" fold="1" page="1" pageScale="1" pageWidth="827" pageHeight="1169" math="0" shadow="0">
      <root>
        <mxCell id="0" />
        <mxCell id="1" parent="0" />
        <mxCell id="Uv0s2Xg-oKRKdew_FFIQ-1" value="需求收集" style="rounded=0;whiteSpace=wrap;html=1;" vertex="1" parent="1">
          <mxGeometry x="340" y="100" width="120" height="60" as="geometry" />
        </mxCell>
        <mxCell id="Uv0s2Xg-oKRKdew_FFIQ-15" style="edgeStyle=orthogonalEdgeStyle;rounded=0;orthogonalLoop=1;jettySize=auto;html=1;" edge="1" parent="1" source="Uv0s2Xg-oKRKdew_FFIQ-2" target="Uv0s2Xg-oKRKdew_FFIQ-14">
          <mxGeometry relative="1" as="geometry" />
        </mxCell>
        <mxCell id="Uv0s2Xg-oKRKdew_FFIQ-2" value="需求信息获取" style="rounded=0;whiteSpace=wrap;html=1;" vertex="1" parent="1">
          <mxGeometry x="120" y="220" width="120" height="60" as="geometry" />
        </mxCell>
        <mxCell id="Uv0s2Xg-oKRKdew_FFIQ-33" style="edgeStyle=orthogonalEdgeStyle;rounded=0;orthogonalLoop=1;jettySize=auto;html=1;entryX=0.5;entryY=0;entryDx=0;entryDy=0;" edge="1" parent="1" source="Uv0s2Xg-oKRKdew_FFIQ-3" target="Uv0s2Xg-oKRKdew_FFIQ-30">
          <mxGeometry relative="1" as="geometry" />
        </mxCell>
        <mxCell id="Uv0s2Xg-oKRKdew_FFIQ-3" value="需求信息整理" style="rounded=0;whiteSpace=wrap;html=1;" vertex="1" parent="1">
          <mxGeometry x="340" y="220" width="120" height="60" as="geometry" />
        </mxCell>
        <mxCell id="Uv0s2Xg-oKRKdew_FFIQ-4" value="销售发票生成" style="rounded=0;whiteSpace=wrap;html=1;" vertex="1" parent="1">
          <mxGeometry x="560" y="220" width="120" height="60" as="geometry" />
        </mxCell>
        <mxCell id="Uv0s2Xg-oKRKdew_FFIQ-5" value="" style="endArrow=classic;html=1;exitX=0;exitY=1;exitDx=0;exitDy=0;entryX=0.5;entryY=0;entryDx=0;entryDy=0;" edge="1" parent="1" source="Uv0s2Xg-oKRKdew_FFIQ-1" target="Uv0s2Xg-oKRKdew_FFIQ-2">
          <mxGeometry width="50" height="50" relative="1" as="geometry">
            <mxPoint x="390" y="310" as="sourcePoint" />
            <mxPoint x="440" y="260" as="targetPoint" />
          </mxGeometry>
        </mxCell>
        <mxCell id="Uv0s2Xg-oKRKdew_FFIQ-6" value="" style="endArrow=classic;html=1;exitX=0.5;exitY=1;exitDx=0;exitDy=0;entryX=0.5;entryY=0;entryDx=0;entryDy=0;" edge="1" parent="1" source="Uv0s2Xg-oKRKdew_FFIQ-1" target="Uv0s2Xg-oKRKdew_FFIQ-3">
          <mxGeometry width="50" height="50" relative="1" as="geometry">
            <mxPoint x="390" y="310" as="sourcePoint" />
            <mxPoint x="440" y="260" as="targetPoint" />
          </mxGeometry>
        </mxCell>
        <mxCell id="Uv0s2Xg-oKRKdew_FFIQ-7" value="" style="endArrow=classic;html=1;exitX=1;exitY=1;exitDx=0;exitDy=0;entryX=0.5;entryY=0;entryDx=0;entryDy=0;" edge="1" parent="1" source="Uv0s2Xg-oKRKdew_FFIQ-1" target="Uv0s2Xg-oKRKdew_FFIQ-4">
          <mxGeometry width="50" height="50" relative="1" as="geometry">
            <mxPoint x="390" y="310" as="sourcePoint" />
            <mxPoint x="440" y="260" as="targetPoint" />
          </mxGeometry>
        </mxCell>
        <mxCell id="Uv0s2Xg-oKRKdew_FFIQ-8" value="" style="endArrow=classic;html=1;startArrow=none;" edge="1" parent="1" source="Uv0s2Xg-oKRKdew_FFIQ-79">
          <mxGeometry width="50" height="50" relative="1" as="geometry">
            <mxPoint x="230" y="190" as="sourcePoint" />
            <mxPoint x="300" y="160" as="targetPoint" />
          </mxGeometry>
        </mxCell>
        <mxCell id="Uv0s2Xg-oKRKdew_FFIQ-9" value="客户需求信息" style="text;html=1;strokeColor=none;fillColor=none;align=center;verticalAlign=middle;whiteSpace=wrap;rounded=0;" vertex="1" parent="1">
          <mxGeometry x="190" y="160" width="80" height="20" as="geometry" />
        </mxCell>
        <mxCell id="Uv0s2Xg-oKRKdew_FFIQ-17" style="edgeStyle=orthogonalEdgeStyle;rounded=0;orthogonalLoop=1;jettySize=auto;html=1;entryX=0.5;entryY=0;entryDx=0;entryDy=0;" edge="1" parent="1" source="Uv0s2Xg-oKRKdew_FFIQ-11" target="Uv0s2Xg-oKRKdew_FFIQ-12">
          <mxGeometry relative="1" as="geometry" />
        </mxCell>
        <mxCell id="Uv0s2Xg-oKRKdew_FFIQ-18" style="edgeStyle=orthogonalEdgeStyle;rounded=0;orthogonalLoop=1;jettySize=auto;html=1;entryX=0.432;entryY=0.028;entryDx=0;entryDy=0;entryPerimeter=0;" edge="1" parent="1" source="Uv0s2Xg-oKRKdew_FFIQ-11" target="Uv0s2Xg-oKRKdew_FFIQ-13">
          <mxGeometry relative="1" as="geometry" />
        </mxCell>
        <mxCell id="Uv0s2Xg-oKRKdew_FFIQ-11" value="获取客户需求信息" style="rounded=0;whiteSpace=wrap;html=1;" vertex="1" parent="1">
          <mxGeometry x="125" y="430" width="110" height="40" as="geometry" />
        </mxCell>
        <mxCell id="Uv0s2Xg-oKRKdew_FFIQ-12" value="开展市场营销&lt;br&gt;和推广活动" style="rounded=0;whiteSpace=wrap;html=1;" vertex="1" parent="1">
          <mxGeometry x="70" y="510" width="100" height="50" as="geometry" />
        </mxCell>
        <mxCell id="Uv0s2Xg-oKRKdew_FFIQ-13" value="开展市场调研" style="rounded=0;whiteSpace=wrap;html=1;" vertex="1" parent="1">
          <mxGeometry x="210" y="510" width="100" height="50" as="geometry" />
        </mxCell>
        <mxCell id="Uv0s2Xg-oKRKdew_FFIQ-16" style="edgeStyle=orthogonalEdgeStyle;rounded=0;orthogonalLoop=1;jettySize=auto;html=1;" edge="1" parent="1" source="Uv0s2Xg-oKRKdew_FFIQ-14" target="Uv0s2Xg-oKRKdew_FFIQ-11">
          <mxGeometry relative="1" as="geometry" />
        </mxCell>
        <mxCell id="Uv0s2Xg-oKRKdew_FFIQ-14" value="录入客户需求" style="rounded=0;whiteSpace=wrap;html=1;" vertex="1" parent="1">
          <mxGeometry x="130" y="320" width="100" height="50" as="geometry" />
        </mxCell>
        <mxCell id="Uv0s2Xg-oKRKdew_FFIQ-19" value="" style="endArrow=classic;html=1;" edge="1" parent="1">
          <mxGeometry width="50" height="50" relative="1" as="geometry">
            <mxPoint x="190" y="410" as="sourcePoint" />
            <mxPoint x="190" y="380" as="targetPoint" />
          </mxGeometry>
        </mxCell>
        <mxCell id="Uv0s2Xg-oKRKdew_FFIQ-20" value="非标准化&lt;br&gt;需求信息" style="text;html=1;strokeColor=none;fillColor=none;align=center;verticalAlign=middle;whiteSpace=wrap;rounded=0;" vertex="1" parent="1">
          <mxGeometry x="165" y="390" width="105" height="20" as="geometry" />
        </mxCell>
        <mxCell id="Uv0s2Xg-oKRKdew_FFIQ-21" value="" style="endArrow=classic;html=1;startArrow=none;" edge="1" parent="1">
          <mxGeometry width="50" height="50" relative="1" as="geometry">
            <mxPoint x="190" y="300" as="sourcePoint" />
            <mxPoint x="190" y="280" as="targetPoint" />
          </mxGeometry>
        </mxCell>
        <mxCell id="Uv0s2Xg-oKRKdew_FFIQ-22" value="标准化需求信息" style="text;html=1;strokeColor=none;fillColor=none;align=center;verticalAlign=middle;whiteSpace=wrap;rounded=0;" vertex="1" parent="1">
          <mxGeometry x="182.5" y="285" width="95" height="20" as="geometry" />
        </mxCell>
        <mxCell id="Uv0s2Xg-oKRKdew_FFIQ-26" value="" style="endArrow=classic;html=1;" edge="1" parent="1">
          <mxGeometry width="50" height="50" relative="1" as="geometry">
            <mxPoint x="170" y="309.9999999999999" as="sourcePoint" />
            <mxPoint x="170" y="280" as="targetPoint" />
          </mxGeometry>
        </mxCell>
        <mxCell id="Uv0s2Xg-oKRKdew_FFIQ-27" value="EOF" style="text;html=1;strokeColor=none;fillColor=none;align=center;verticalAlign=middle;whiteSpace=wrap;rounded=0;" vertex="1" parent="1">
          <mxGeometry x="135" y="290" width="35" height="20" as="geometry" />
        </mxCell>
        <mxCell id="Uv0s2Xg-oKRKdew_FFIQ-28" value="" style="endArrow=classic;html=1;" edge="1" parent="1">
          <mxGeometry width="50" height="50" relative="1" as="geometry">
            <mxPoint x="165" y="409.9999999999999" as="sourcePoint" />
            <mxPoint x="165" y="380" as="targetPoint" />
          </mxGeometry>
        </mxCell>
        <mxCell id="Uv0s2Xg-oKRKdew_FFIQ-29" value="EOF" style="text;html=1;strokeColor=none;fillColor=none;align=center;verticalAlign=middle;whiteSpace=wrap;rounded=0;" vertex="1" parent="1">
          <mxGeometry x="135" y="390" width="35" height="20" as="geometry" />
        </mxCell>
        <mxCell id="Uv0s2Xg-oKRKdew_FFIQ-34" style="edgeStyle=orthogonalEdgeStyle;rounded=0;orthogonalLoop=1;jettySize=auto;html=1;" edge="1" parent="1" source="Uv0s2Xg-oKRKdew_FFIQ-30" target="Uv0s2Xg-oKRKdew_FFIQ-31">
          <mxGeometry relative="1" as="geometry" />
        </mxCell>
        <mxCell id="Uv0s2Xg-oKRKdew_FFIQ-35" style="edgeStyle=orthogonalEdgeStyle;rounded=0;orthogonalLoop=1;jettySize=auto;html=1;entryX=0.5;entryY=0;entryDx=0;entryDy=0;" edge="1" parent="1" source="Uv0s2Xg-oKRKdew_FFIQ-30" target="Uv0s2Xg-oKRKdew_FFIQ-32">
          <mxGeometry relative="1" as="geometry" />
        </mxCell>
        <mxCell id="Uv0s2Xg-oKRKdew_FFIQ-30" value="数据正确性检查" style="rounded=0;whiteSpace=wrap;html=1;" vertex="1" parent="1">
          <mxGeometry x="355" y="325" width="90" height="50" as="geometry" />
        </mxCell>
        <mxCell id="Uv0s2Xg-oKRKdew_FFIQ-31" value="将需求数据录入数据库" style="rounded=0;whiteSpace=wrap;html=1;" vertex="1" parent="1">
          <mxGeometry x="300" y="425" width="80" height="50" as="geometry" />
        </mxCell>
        <mxCell id="Uv0s2Xg-oKRKdew_FFIQ-32" value="报错" style="rounded=0;whiteSpace=wrap;html=1;" vertex="1" parent="1">
          <mxGeometry x="430" y="425" width="80" height="50" as="geometry" />
        </mxCell>
        <mxCell id="Uv0s2Xg-oKRKdew_FFIQ-36" value="" style="rhombus;whiteSpace=wrap;html=1;" vertex="1" parent="1">
          <mxGeometry x="380" y="375" width="40" height="10" as="geometry" />
        </mxCell>
        <mxCell id="Uv0s2Xg-oKRKdew_FFIQ-37" value="" style="endArrow=classic;html=1;" edge="1" parent="1">
          <mxGeometry width="50" height="50" relative="1" as="geometry">
            <mxPoint x="410" y="200" as="sourcePoint" />
            <mxPoint x="410" y="170" as="targetPoint" />
          </mxGeometry>
        </mxCell>
        <mxCell id="Uv0s2Xg-oKRKdew_FFIQ-38" value="结构化&lt;br&gt;需求数据" style="text;html=1;strokeColor=none;fillColor=none;align=center;verticalAlign=middle;whiteSpace=wrap;rounded=0;" vertex="1" parent="1">
          <mxGeometry x="414" y="180" width="66" height="20" as="geometry" />
        </mxCell>
        <mxCell id="Uv0s2Xg-oKRKdew_FFIQ-46" style="edgeStyle=orthogonalEdgeStyle;rounded=0;orthogonalLoop=1;jettySize=auto;html=1;" edge="1" parent="1" source="Uv0s2Xg-oKRKdew_FFIQ-39" target="Uv0s2Xg-oKRKdew_FFIQ-40">
          <mxGeometry relative="1" as="geometry" />
        </mxCell>
        <mxCell id="Uv0s2Xg-oKRKdew_FFIQ-39" value="数据库数据读取" style="rounded=0;whiteSpace=wrap;html=1;" vertex="1" parent="1">
          <mxGeometry x="560" y="400" width="120" height="60" as="geometry" />
        </mxCell>
        <mxCell id="Uv0s2Xg-oKRKdew_FFIQ-40" value="其他必要信息添加" style="rounded=0;whiteSpace=wrap;html=1;" vertex="1" parent="1">
          <mxGeometry x="560" y="325" width="120" height="40" as="geometry" />
        </mxCell>
        <mxCell id="Uv0s2Xg-oKRKdew_FFIQ-43" value="正确需求信息" style="text;html=1;strokeColor=none;fillColor=none;align=center;verticalAlign=middle;whiteSpace=wrap;rounded=0;" vertex="1" parent="1">
          <mxGeometry x="409" y="290" width="90" height="20" as="geometry" />
        </mxCell>
        <mxCell id="Uv0s2Xg-oKRKdew_FFIQ-44" value="" style="endArrow=classic;html=1;entryX=0.5;entryY=1;entryDx=0;entryDy=0;" edge="1" parent="1" source="Uv0s2Xg-oKRKdew_FFIQ-40" target="Uv0s2Xg-oKRKdew_FFIQ-4">
          <mxGeometry width="50" height="50" relative="1" as="geometry">
            <mxPoint x="750" y="300" as="sourcePoint" />
            <mxPoint x="800" y="250" as="targetPoint" />
          </mxGeometry>
        </mxCell>
        <mxCell id="Uv0s2Xg-oKRKdew_FFIQ-48" value="" style="endArrow=classic;html=1;" edge="1" parent="1">
          <mxGeometry width="50" height="50" relative="1" as="geometry">
            <mxPoint x="635" y="310" as="sourcePoint" />
            <mxPoint x="635" y="290" as="targetPoint" />
          </mxGeometry>
        </mxCell>
        <mxCell id="Uv0s2Xg-oKRKdew_FFIQ-49" value="完整发票内容" style="text;html=1;strokeColor=none;fillColor=none;align=center;verticalAlign=middle;whiteSpace=wrap;rounded=0;" vertex="1" parent="1">
          <mxGeometry x="630" y="295" width="105" height="20" as="geometry" />
        </mxCell>
        <mxCell id="Uv0s2Xg-oKRKdew_FFIQ-50" value="" style="endArrow=classic;html=1;startArrow=none;" edge="1" parent="1" source="Uv0s2Xg-oKRKdew_FFIQ-77">
          <mxGeometry width="50" height="50" relative="1" as="geometry">
            <mxPoint x="570" y="190" as="sourcePoint" />
            <mxPoint x="490" y="160" as="targetPoint" />
          </mxGeometry>
        </mxCell>
        <mxCell id="Uv0s2Xg-oKRKdew_FFIQ-51" value="销售发票" style="text;html=1;strokeColor=none;fillColor=none;align=center;verticalAlign=middle;whiteSpace=wrap;rounded=0;" vertex="1" parent="1">
          <mxGeometry x="520" y="160" width="50" height="20" as="geometry" />
        </mxCell>
        <mxCell id="Uv0s2Xg-oKRKdew_FFIQ-52" value="" style="ellipse;whiteSpace=wrap;html=1;aspect=fixed;color=black;fillColor=#000000;" vertex="1" parent="1">
          <mxGeometry x="165" y="300" width="10" height="10" as="geometry" />
        </mxCell>
        <mxCell id="Uv0s2Xg-oKRKdew_FFIQ-57" value="" style="ellipse;whiteSpace=wrap;html=1;aspect=fixed;color=black;fillColor=#000000;" vertex="1" parent="1">
          <mxGeometry x="160" y="410" width="10" height="10" as="geometry" />
        </mxCell>
        <mxCell id="Uv0s2Xg-oKRKdew_FFIQ-58" value="" style="endArrow=classic;html=1;" edge="1" parent="1">
          <mxGeometry width="50" height="50" relative="1" as="geometry">
            <mxPoint x="390" y="314.9999999999999" as="sourcePoint" />
            <mxPoint x="390" y="285" as="targetPoint" />
          </mxGeometry>
        </mxCell>
        <mxCell id="Uv0s2Xg-oKRKdew_FFIQ-59" value="EOF" style="text;html=1;strokeColor=none;fillColor=none;align=center;verticalAlign=middle;whiteSpace=wrap;rounded=0;" vertex="1" parent="1">
          <mxGeometry x="355" y="290" width="35" height="20" as="geometry" />
        </mxCell>
        <mxCell id="Uv0s2Xg-oKRKdew_FFIQ-60" value="" style="ellipse;whiteSpace=wrap;html=1;aspect=fixed;color=black;fillColor=#000000;" vertex="1" parent="1">
          <mxGeometry x="385" y="305" width="10" height="10" as="geometry" />
        </mxCell>
        <mxCell id="Uv0s2Xg-oKRKdew_FFIQ-61" value="" style="endArrow=classic;html=1;" edge="1" parent="1">
          <mxGeometry width="50" height="50" relative="1" as="geometry">
            <mxPoint x="605" y="319.9999999999999" as="sourcePoint" />
            <mxPoint x="605" y="290" as="targetPoint" />
          </mxGeometry>
        </mxCell>
        <mxCell id="Uv0s2Xg-oKRKdew_FFIQ-62" value="EOF" style="text;html=1;strokeColor=none;fillColor=none;align=center;verticalAlign=middle;whiteSpace=wrap;rounded=0;" vertex="1" parent="1">
          <mxGeometry x="570" y="295" width="35" height="20" as="geometry" />
        </mxCell>
        <mxCell id="Uv0s2Xg-oKRKdew_FFIQ-63" value="" style="ellipse;whiteSpace=wrap;html=1;aspect=fixed;color=black;fillColor=#000000;" vertex="1" parent="1">
          <mxGeometry x="600" y="310" width="10" height="10" as="geometry" />
        </mxCell>
        <mxCell id="Uv0s2Xg-oKRKdew_FFIQ-64" value="" style="endArrow=classic;html=1;" edge="1" parent="1">
          <mxGeometry width="50" height="50" relative="1" as="geometry">
            <mxPoint x="605" y="394.9999999999999" as="sourcePoint" />
            <mxPoint x="605" y="365" as="targetPoint" />
          </mxGeometry>
        </mxCell>
        <mxCell id="Uv0s2Xg-oKRKdew_FFIQ-65" value="EOF" style="text;html=1;strokeColor=none;fillColor=none;align=center;verticalAlign=middle;whiteSpace=wrap;rounded=0;" vertex="1" parent="1">
          <mxGeometry x="570" y="375" width="35" height="20" as="geometry" />
        </mxCell>
        <mxCell id="Uv0s2Xg-oKRKdew_FFIQ-66" value="" style="ellipse;whiteSpace=wrap;html=1;aspect=fixed;color=black;fillColor=#000000;" vertex="1" parent="1">
          <mxGeometry x="600" y="385" width="10" height="10" as="geometry" />
        </mxCell>
        <mxCell id="Uv0s2Xg-oKRKdew_FFIQ-69" value="" style="ellipse;whiteSpace=wrap;html=1;aspect=fixed;color=black;fillColor=#FFFFFF;" vertex="1" parent="1">
          <mxGeometry x="630" y="310" width="10" height="10" as="geometry" />
        </mxCell>
        <mxCell id="Uv0s2Xg-oKRKdew_FFIQ-71" value="" style="endArrow=classic;html=1;" edge="1" parent="1">
          <mxGeometry width="50" height="50" relative="1" as="geometry">
            <mxPoint x="635" y="385" as="sourcePoint" />
            <mxPoint x="635" y="365" as="targetPoint" />
          </mxGeometry>
        </mxCell>
        <mxCell id="Uv0s2Xg-oKRKdew_FFIQ-72" value="" style="ellipse;whiteSpace=wrap;html=1;aspect=fixed;color=black;fillColor=#FFFFFF;" vertex="1" parent="1">
          <mxGeometry x="630" y="385" width="10" height="10" as="geometry" />
        </mxCell>
        <mxCell id="Uv0s2Xg-oKRKdew_FFIQ-73" value="&lt;div style=&quot;text-align: center&quot;&gt;&lt;span&gt;&lt;font face=&quot;helvetica&quot;&gt;需求数据&lt;/font&gt;&lt;/span&gt;&lt;/div&gt;" style="text;whiteSpace=wrap;html=1;" vertex="1" parent="1">
          <mxGeometry x="640" y="370" width="100" height="30" as="geometry" />
        </mxCell>
        <mxCell id="Uv0s2Xg-oKRKdew_FFIQ-75" value="" style="endArrow=classic;html=1;" edge="1" parent="1">
          <mxGeometry width="50" height="50" relative="1" as="geometry">
            <mxPoint x="414" y="305" as="sourcePoint" />
            <mxPoint x="414" y="285" as="targetPoint" />
          </mxGeometry>
        </mxCell>
        <mxCell id="Uv0s2Xg-oKRKdew_FFIQ-76" value="" style="ellipse;whiteSpace=wrap;html=1;aspect=fixed;color=black;fillColor=#FFFFFF;" vertex="1" parent="1">
          <mxGeometry x="409" y="305" width="10" height="10" as="geometry" />
        </mxCell>
        <mxCell id="Uv0s2Xg-oKRKdew_FFIQ-77" value="" style="ellipse;whiteSpace=wrap;html=1;aspect=fixed;color=black;fillColor=#FFFFFF;" vertex="1" parent="1">
          <mxGeometry x="560" y="185" width="10" height="10" as="geometry" />
        </mxCell>
        <mxCell id="Uv0s2Xg-oKRKdew_FFIQ-78" value="" style="endArrow=none;html=1;" edge="1" parent="1" target="Uv0s2Xg-oKRKdew_FFIQ-77">
          <mxGeometry width="50" height="50" relative="1" as="geometry">
            <mxPoint x="570" y="190" as="sourcePoint" />
            <mxPoint x="490" y="160" as="targetPoint" />
          </mxGeometry>
        </mxCell>
        <mxCell id="Uv0s2Xg-oKRKdew_FFIQ-79" value="" style="ellipse;whiteSpace=wrap;html=1;aspect=fixed;color=black;fillColor=#FFFFFF;" vertex="1" parent="1">
          <mxGeometry x="225" y="185" width="10" height="10" as="geometry" />
        </mxCell>
        <mxCell id="Uv0s2Xg-oKRKdew_FFIQ-80" value="" style="endArrow=none;html=1;" edge="1" parent="1" target="Uv0s2Xg-oKRKdew_FFIQ-79">
          <mxGeometry width="50" height="50" relative="1" as="geometry">
            <mxPoint x="230" y="190" as="sourcePoint" />
            <mxPoint x="300" y="160" as="targetPoint" />
          </mxGeometry>
        </mxCell>
        <mxCell id="Uv0s2Xg-oKRKdew_FFIQ-81" value="" style="ellipse;whiteSpace=wrap;html=1;aspect=fixed;color=black;fillColor=#FFFFFF;" vertex="1" parent="1">
          <mxGeometry x="185" y="300" width="10" height="10" as="geometry" />
        </mxCell>
        <mxCell id="Uv0s2Xg-oKRKdew_FFIQ-83" value="" style="ellipse;whiteSpace=wrap;html=1;aspect=fixed;color=black;fillColor=#FFFFFF;" vertex="1" parent="1">
          <mxGeometry x="185" y="410" width="10" height="10" as="geometry" />
        </mxCell>
        <mxCell id="Uv0s2Xg-oKRKdew_FFIQ-84" value="" style="ellipse;whiteSpace=wrap;html=1;aspect=fixed;color=black;fillColor=#FFFFFF;" vertex="1" parent="1">
          <mxGeometry x="404" y="200" width="10" height="10" as="geometry" />
        </mxCell>
      </root>
    </mxGraphModel>
  </diagram>
</mxfile>
